# xmcd
#
# Track frame offsets:
#	150
#	13585
#	28712
#
# Disc length: 534 seconds
#
# Revision: 0
# Processed by: cddbd v1.5.1PL0 Copyright (c) Steve Scherf et al.
# Submitted via: dBpowerAMP V4.0
#
DISCID=19021403
DTITLE=Black Keys - 10AM Automatic
DYEAR=2004
DGENRE=Blues
TTITLE0=10AM Automatic
TTITLE1=Stackshot Billy
TTITLE2=Summertime Blues
EXTD=
EXTT0=
EXTT1=
EXTT2=
PLAYORDER=
